<svg width="59" height="69" viewBox="0 0 59 69" fill="none" xmlns="http://www.w3.org/2000/svg">
<path id="Vector" d="M26 42.25V48.75C15.2304 48.75 6.5 57.4805 6.5 68.25H0C0 53.8905 11.6406 42.25 26 42.25ZM26 39C15.2262 39 6.5 30.2738 6.5 19.5C6.5 8.72625 15.2262 0 26 0C36.7738 0 45.5 8.72625 45.5 19.5C45.5 30.2738 36.7738 39 26 39ZM26 32.5C33.1825 32.5 39 26.6825 39 19.5C39 12.3175 33.1825 6.5 26 6.5C18.8175 6.5 13 12.3175 13 19.5C13 26.6825 18.8175 32.5 26 32.5ZM55.25 52H58.5V68.25H32.5V52H35.75V48.75C35.75 43.3651 40.1151 39 45.5 39C50.8849 39 55.25 43.3651 55.25 48.75V52ZM48.75 52V48.75C48.75 46.955 47.295 45.5 45.5 45.5C43.705 45.5 42.25 46.955 42.25 48.75V52H48.75Z" fill="#1E1E1E"/>
</svg>
