<svg width="80" height="80" viewBox="0 0 80 80" fill="none" xmlns="http://www.w3.org/2000/svg">
<g id="Frame">
<path id="Vector" d="M13.3333 37.7777L0 30L40 6.66667L80 30V58.3333H73.3333V33.889L66.6667 37.7777V60.0377L65.9247 60.9547C59.819 68.4997 50.4727 73.3333 40 73.3333C29.5272 73.3333 20.181 68.4997 14.0754 60.9547L13.3333 60.0377V37.7777ZM20 41.6667V57.639C24.8907 63.18 32.0371 66.6667 40 66.6667C47.963 66.6667 55.1093 63.18 60 57.639V41.6667L40 53.3333L20 41.6667ZM13.2309 30L40 45.6153L66.769 30L40 14.3847L13.2309 30Z" fill="#1E1E1E"/>
</g>
</svg>
