<svg width="60" height="67" viewBox="0 0 60 67" fill="none" xmlns="http://www.w3.org/2000/svg">
<path id="Vector" d="M16.6667 6.66667C16.6667 10.3486 13.6819 13.3333 10 13.3333C6.3181 13.3333 3.33333 10.3486 3.33333 6.66667C3.33333 2.98477 6.3181 0 10 0C13.6819 0 16.6667 2.98477 16.6667 6.66667ZM6.66667 46.6667V66.6667H0V26.6667C0 21.1438 4.47717 16.6667 10 16.6667C12.7353 16.6667 15.2141 17.7649 17.0195 19.5444L24.9343 27.019L32.6437 19.3096L37.3577 24.0237L25.067 36.3143L20 31.529V66.6667H13.3333V46.6667H6.66667ZM10 23.3333C8.15907 23.3333 6.66667 24.8257 6.66667 26.6667V40H13.3333V26.6667C13.3333 24.8257 11.8409 23.3333 10 23.3333ZM53.3333 10H23.3333V3.33333H56.6667C58.5077 3.33333 60 4.82573 60 6.66667V43.3333C60 45.1743 58.5077 46.6667 56.6667 46.6667H45.2527L54.6643 66.6667H47.2963L37.8847 46.6667H23.3333V40H53.3333V10Z" fill="#1E1E1E"/>
</svg>
